<?xml version="1.0" standalone="no"?>
<!DOCTYPE svg PUBLIC "-//W3C//DTD SVG 20010904//EN"
 "http://www.w3.org/TR/2001/REC-SVG-20010904/DTD/svg10.dtd">
<svg version="1.0" xmlns="http://www.w3.org/2000/svg"
 width="1654.000000pt" height="1654.000000pt" viewBox="0 0 1654.000000 1654.000000"
 preserveAspectRatio="xMidYMid meet">
<metadata>
Created by potrace 1.11, written by Peter Selinger 2001-2013
</metadata>
<g transform="translate(0.000000,1654.000000) scale(0.100000,-0.100000)"
fill="#000000" stroke="none">
<path d="M14780 11711 c-62 -13 -144 -57 -188 -100 -90 -90 -133 -198 -137
-346 -9 -318 156 -522 415 -516 118 3 198 38 281 126 32 34 84 134 94 183 l7
32 -51 0 c-50 0 -50 0 -60 -38 -40 -148 -190 -242 -333 -208 -160 37 -256 187
-256 398 0 240 140 399 340 386 115 -7 192 -57 236 -152 22 -45 27 -48 82 -48
49 0 50 2 15 77 -43 90 -118 159 -210 189 -56 19 -183 29 -235 17z"/>
<path d="M15606 11704 c-56 -18 -91 -38 -124 -72 -73 -76 -71 -225 6 -305 42
-44 101 -74 234 -118 144 -49 183 -67 220 -104 49 -49 49 -138 1 -195 -112
-134 -378 -84 -423 80 -7 25 -14 51 -16 58 -2 7 -22 12 -54 12 l-51 0 6 -42
c14 -92 82 -185 169 -230 132 -68 319 -52 423 36 64 54 98 173 73 261 -26 94
-99 145 -308 214 -182 61 -231 100 -233 184 -3 93 73 149 201 148 118 0 196
-56 215 -154 2 -9 6 -21 9 -25 4 -7 49 -8 89 -3 13 2 2 62 -20 112 -26 59 -72
105 -131 132 -62 28 -215 34 -286 11z"/>
<path d="M359 11691 c-7 -39 -3 -121 5 -122 6 -1 67 -3 136 -4 69 -1 131 -3
138 -4 9 -1 12 -87 12 -396 l0 -395 78 0 78 0 0 395 c-1 255 3 396 9 398 6 2
72 3 148 2 l138 0 -3 65 -3 65 -367 1 c-203 0 -368 -2 -369 -5z"/>
<path d="M1269 11671 c0 -15 -1 -163 -1 -331 0 -346 5 -379 70 -465 57 -76
146 -118 260 -123 179 -8 316 75 368 223 15 43 18 94 18 385 l1 335 -77 1 -78
1 -1 -316 c0 -174 -2 -327 -5 -340 -34 -185 -305 -221 -382 -51 -13 29 -16 89
-18 365 -1 182 -2 333 -3 336 -1 4 -35 6 -76 6 -73 -1 -75 -2 -76 -26z"/>
<path d="M2229 11677 c-1 -29 -1 -878 0 -895 1 -10 21 -12 79 -10 l77 3 -1
188 -1 187 134 0 c213 0 233 -16 233 -186 0 -107 14 -182 35 -190 7 -3 46 -4
88 -2 l76 3 -19 43 c-14 31 -20 73 -23 155 -5 139 -29 199 -94 235 -14 8 -12
14 21 42 57 50 80 103 80 180 0 107 -57 190 -164 239 -53 24 -62 25 -287 27
-232 2 -233 2 -234 -19z m466 -137 c92 -57 84 -189 -15 -242 -30 -16 -54 -18
-165 -16 l-130 3 -1 141 0 140 137 -1 c124 -2 140 -4 174 -25z"/>
<path d="M3149 11676 c-1 -29 -1 -856 0 -884 l1 -23 232 1 c257 2 289 8 368
70 75 59 113 161 96 253 -9 49 -55 113 -105 146 l-42 28 36 39 c87 95 79 254
-18 328 -68 52 -104 58 -344 61 -221 3 -223 2 -224 -19z m439 -125 c81 -34 79
-148 -3 -196 -38 -23 -55 -26 -142 -26 -54 0 -107 0 -119 0 -20 1 -21 5 -19
119 2 64 3 117 4 118 8 7 259 -7 279 -15z m2 -375 c87 -36 125 -129 81 -199
-35 -57 -75 -70 -231 -71 l-135 -1 -1 140 c0 77 1 143 2 146 7 13 249 0 284
-15z"/>
<path d="M4029 11691 c0 -3 -1 -152 -1 -331 0 -265 3 -336 15 -378 56 -187
262 -279 474 -210 56 18 79 33 129 82 96 96 98 104 99 504 1 182 -1 333 -4
334 -4 0 -38 2 -78 3 l-72 3 -3 -343 -3 -343 -30 -43 c-36 -50 -90 -80 -155
-87 -86 -8 -154 28 -192 101 -21 40 -22 54 -23 377 l-1 335 -77 1 c-42 1 -77
-1 -78 -5z"/>
<path d="M4977 11246 c0 -248 1 -457 2 -463 1 -10 68 -13 301 -13 l301 0 -3
68 -3 67 -210 1 c-115 1 -215 2 -221 3 -7 1 -10 118 -10 381 1 210 -1 386 -4
393 -3 8 -31 13 -80 13 l-75 1 2 -451z"/>
<path d="M5749 11678 c0 -10 -1 -217 -1 -460 l-1 -443 336 -3 c222 -1 337 1
338 8 0 5 1 30 1 55 0 25 -1 51 -1 58 -1 10 -56 13 -259 12 l-258 0 0 137 0
138 233 0 233 0 0 68 0 67 -233 0 -234 -1 0 121 c0 66 3 122 7 125 5 3 116 5
248 5 l240 -1 4 31 c1 16 1 46 -2 66 l-5 35 -322 1 c-307 0 -323 -1 -324 -19z"/>
<path d="M6617 11246 c1 -248 2 -457 2 -463 1 -9 23 -13 75 -13 62 0 74 3 78
18 2 9 3 167 3 349 0 183 3 329 6 325 4 -4 56 -92 114 -197 59 -104 145 -259
192 -342 l86 -153 88 0 89 0 -2 463 -3 462 -75 0 -75 0 -2 -320 c-1 -176 -2
-333 -2 -350 -1 -23 -17 0 -85 120 -45 83 -129 230 -185 329 -55 98 -101 182
-101 186 0 23 -38 35 -119 36 l-86 1 2 -451z"/>
<path d="M7527 11686 c-2 -9 -2 -75 2 -112 1 -8 46 -11 146 -10 l145 2 0 -398
0 -398 78 0 78 0 -1 378 c0 207 1 386 3 397 3 19 11 20 148 20 l144 -1 0 66 0
66 -370 1 c-257 0 -370 -4 -373 -11z"/>
<path d="M9233 11233 l0 -465 221 4 221 3 64 33 c119 61 201 180 225 325 38
226 -49 438 -214 521 -70 36 -92 39 -311 41 l-206 3 0 -465z m415 358 c153
-47 235 -187 226 -385 -7 -153 -75 -262 -201 -318 -41 -19 -71 -23 -195 -26
l-148 -4 0 369 c0 203 2 372 5 375 9 9 279 0 313 -11z"/>
<path d="M10129 11666 c10 -17 84 -142 165 -277 l147 -246 0 -187 0 -186 49 0
50 0 0 186 0 186 165 275 c91 151 165 276 165 277 0 2 -25 3 -56 2 l-57 -1
-83 -145 c-46 -80 -104 -182 -129 -227 -25 -46 -49 -83 -53 -83 -4 0 -66 102
-137 228 l-130 227 -57 1 -58 1 19 -31z"/>
<path d="M11062 11691 c-5 -3 -9 -207 -9 -463 l0 -458 49 0 48 0 2 398 3 397
23 -40 c12 -22 32 -56 43 -75 67 -112 224 -378 234 -395 6 -11 46 -80 89 -153
l79 -133 66 3 66 3 0 461 0 461 -47 0 c-27 1 -48 -4 -50 -11 -2 -6 -4 -185 -3
-398 0 -213 -1 -386 -2 -384 -2 1 -105 175 -229 387 -124 211 -230 389 -235
394 -11 11 -113 15 -127 6z"/>
<path d="M12277 11626 c-159 -433 -307 -841 -307 -848 0 -4 22 -8 49 -8 l48 0
28 78 c15 42 39 108 54 147 l27 70 185 1 c101 0 189 -1 195 -4 7 -2 36 -68 65
-148 l52 -144 49 0 c26 0 48 4 48 9 0 5 -25 78 -56 162 -76 210 -110 303 -189
519 -37 102 -71 197 -76 211 -9 25 -14 26 -78 26 l-68 -1 -26 -70z m150 -178
c28 -79 65 -180 82 -225 l30 -83 -169 0 -169 0 14 38 c7 20 32 89 55 152 23
63 54 148 68 188 14 39 29 72 32 72 3 0 28 -64 57 -142z"/>
<path d="M12998 11697 c0 -1 -2 -210 -3 -464 l-2 -463 49 0 48 0 1 333 c1 182
0 350 0 372 -1 28 1 36 7 26 6 -7 70 -175 143 -372 l134 -359 45 0 46 0 133
365 c74 200 137 363 140 361 3 -2 6 -167 6 -365 l-1 -361 48 0 c43 0 48 2 49
23 1 28 1 878 0 893 -1 19 -120 14 -131 -5 -8 -16 -248 -645 -277 -729 -8 -24
-17 -42 -18 -40 -3 3 -91 235 -195 518 -39 107 -75 204 -80 215 -5 11 -10 27
-13 35 -3 11 -20 15 -65 17 -34 1 -63 1 -64 0z"/>
<path d="M14119 11696 c-4 -4 -5 -903 -1 -913 2 -8 22 -13 47 -13 25 0 44 5
47 13 3 10 3 870 -1 903 -1 8 -86 18 -92 10z"/>
<path d="M9128 10035 c-2 -1 -39 -5 -83 -9 -347 -27 -750 -144 -1188 -345 -37
-17 -69 -31 -72 -31 -23 0 -782 -386 -1055 -538 -335 -185 -869 -456 -1093
-556 -409 -181 -793 -307 -1045 -341 -20 -3 -50 -8 -67 -10 -164 -26 -412 -26
-585 -1 -289 43 -580 174 -834 373 -140 110 -389 376 -496 529 -144 206 -240
360 -330 529 -65 123 -64 122 -114 145 -40 18 -66 15 -81 -11 -7 -11 -7 -199
1 -764 2 -187 5 -780 5 -1317 l1 -978 102 -81 c261 -208 543 -367 801 -451 75
-24 236 -64 295 -73 25 -4 54 -9 65 -11 47 -9 199 -18 305 -18 106 0 298 12
310 19 3 1 28 6 55 9 211 28 539 124 790 231 242 103 406 185 695 346 188 104
378 218 680 408 590 369 762 475 993 608 534 306 982 493 1368 568 71 14 132
25 136 25 4 0 -27 -23 -68 -51 -162 -112 -357 -287 -456 -409 -15 -19 -33 -41
-40 -48 -33 -35 -147 -218 -191 -307 -92 -186 -131 -319 -167 -572 -8 -60 -9
-236 -1 -323 63 -680 503 -1354 1151 -1765 50 -31 158 -90 240 -130 380 -186
757 -256 1075 -201 14 3 42 7 62 10 110 17 429 107 533 151 17 7 73 29 125 50
345 137 846 422 1121 637 l94 74 1 -96 c2 -174 67 -316 210 -457 216 -211 629
-356 991 -347 314 8 494 82 695 286 408 414 520 944 298 1413 -141 297 -421
541 -745 650 -84 28 -222 59 -315 70 -102 13 -331 7 -430 -10 -14 -3 -41 -7
-60 -10 -29 -5 -201 -49 -277 -71 l-22 -6 25 63 c28 68 59 182 71 258 15 96 8
409 -12 501 -3 14 -8 45 -11 70 -26 191 -167 622 -279 855 -282 588 -866 1032
-1650 1254 -123 35 -498 122 -580 134 -16 3 -73 12 -125 20 -93 15 -125 19
-245 33 -33 4 -73 8 -90 11 -35 4 -482 12 -487 8z m477 -109 c17 -2 64 -7 105
-11 41 -4 84 -9 95 -11 11 -2 40 -7 65 -10 53 -7 330 -57 375 -68 6 -2 28 -6
50 -11 369 -72 762 -215 1043 -377 87 -50 273 -174 307 -205 12 -10 50 -43 85
-73 303 -257 499 -575 650 -1055 75 -238 100 -344 124 -527 16 -117 14 -373
-3 -458 -16 -80 -61 -204 -102 -285 -35 -69 -38 -71 -125 -117 -49 -26 -156
-77 -239 -113 -82 -37 -164 -73 -180 -80 -170 -76 -516 -179 -670 -200 -28 -3
-64 -8 -80 -10 -63 -9 -243 -6 -310 4 -187 30 -306 91 -442 226 -145 146 -223
286 -402 728 -181 447 -247 577 -376 742 -132 168 -285 280 -474 344 -168 58
-286 59 -561 7 -8 -2 -33 -6 -55 -10 -111 -22 -462 -132 -560 -176 -11 -5 -92
-41 -180 -80 -360 -162 -624 -311 -1355 -768 -1084 -678 -1454 -872 -1983
-1036 -151 -47 -266 -73 -447 -101 -149 -24 -472 -24 -597 -1 -10 2 -38 7 -63
11 -325 51 -687 222 -1012 479 l-97 77 2 644 c1 355 5 645 10 645 4 0 7 -4 7
-10 0 -16 309 -322 410 -405 353 -292 687 -465 970 -503 111 -14 467 -7 555
12 11 2 42 7 69 10 27 4 53 9 56 11 4 2 22 7 41 10 19 3 99 22 179 41 80 20
156 38 168 40 59 12 326 100 450 148 331 129 635 280 1172 583 19 11 55 31 80
45 25 14 61 34 80 45 472 273 939 526 1166 631 412 192 810 328 1094 373 36 5
76 12 90 14 198 31 519 37 656 11 10 -2 42 -7 69 -10 28 -4 97 -18 155 -32 58
-14 121 -27 140 -30 304 -45 787 -298 1139 -597 485 -412 715 -848 611 -1157
-63 -188 -262 -359 -435 -373 -197 -17 -360 239 -290 453 23 70 74 117 166
153 41 17 54 46 32 76 -19 28 -56 27 -118 -3 -126 -59 -199 -183 -197 -334 3
-214 137 -399 316 -437 161 -33 321 34 483 202 62 66 138 197 149 258 3 17 9
46 13 66 12 53 6 184 -12 260 -89 376 -444 798 -965 1146 -150 100 -422 245
-532 284 -36 12 -69 26 -75 29 -12 8 -201 58 -360 95 -201 46 -391 69 -575 68
-92 0 -300 -12 -309 -17 -3 -2 -31 -7 -61 -10 -228 -27 -558 -118 -852 -235
-213 -84 -335 -141 -603 -276 -269 -136 -368 -191 -910 -500 -763 -435 -1128
-614 -1525 -750 -118 -40 -324 -98 -395 -111 -14 -2 -36 -9 -50 -14 -14 -5
-25 -7 -25 -5 0 2 -11 0 -25 -5 -14 -5 -36 -12 -48 -14 -12 -3 -33 -7 -47 -11
-47 -10 -195 -35 -255 -42 -33 -5 -150 -8 -260 -7 -208 0 -234 4 -395 56 -142
46 -356 161 -528 284 -194 139 -446 372 -604 559 l-76 91 -6 694 -6 695 20
-33 c11 -18 20 -34 20 -36 0 -10 138 -238 201 -332 126 -189 219 -309 354
-453 325 -347 666 -548 1070 -631 329 -68 741 -37 1155 87 184 55 496 173 690
260 83 38 545 267 650 323 63 34 167 89 230 122 63 33 138 73 165 88 68 38
141 77 260 140 55 29 134 71 175 93 280 150 662 332 910 434 230 95 509 187
623 207 15 3 35 7 45 10 9 3 35 7 57 11 38 5 60 9 130 20 17 3 71 8 120 11 50
4 91 8 93 9 5 5 424 -4 457 -9z m-590 -1646 c268 -69 487 -270 649 -596 61
-124 100 -214 216 -504 163 -404 267 -582 435 -743 118 -113 316 -201 497
-222 64 -8 239 -8 288 -1 19 3 55 8 80 11 184 22 527 124 745 220 17 7 58 25
91 39 34 14 158 72 275 130 184 89 347 153 440 171 196 39 250 46 382 47 644
6 1158 -395 1248 -974 11 -73 8 -271 -5 -328 -3 -14 -8 -38 -12 -55 -17 -91
-79 -244 -137 -340 -83 -137 -253 -327 -354 -396 -353 -243 -1090 -137 -1423
205 -107 110 -161 229 -164 361 -1 90 7 146 34 217 27 74 49 100 118 142 150
91 364 127 512 87 121 -34 269 -142 311 -227 83 -172 -120 -398 -324 -360 -71
13 -121 95 -126 206 -3 61 -21 90 -56 90 -39 0 -48 -23 -43 -103 14 -198 120
-307 292 -299 51 2 222 55 314 98 285 131 491 387 494 614 2 81 -6 120 -38
189 -54 120 -175 230 -339 311 -158 79 -235 95 -450 95 -205 0 -301 -16 -519
-85 -211 -68 -337 -123 -806 -353 -434 -212 -599 -279 -754 -303 -21 -3 -48
-7 -59 -10 -52 -10 -205 -18 -327 -18 -131 1 -349 12 -360 19 -3 2 -33 6 -65
10 -33 3 -71 8 -85 11 -14 2 -38 7 -55 10 -16 3 -50 10 -75 15 -25 6 -53 12
-62 14 -42 9 -168 47 -216 65 -414 158 -863 659 -947 1056 -28 131 -13 258 40
347 51 86 153 175 225 194 130 36 273 -145 266 -336 -4 -102 -43 -165 -133
-210 -23 -11 -44 -30 -48 -40 -8 -26 9 -57 34 -64 44 -11 157 66 202 139 138
224 -40 614 -283 617 -138 2 -319 -152 -389 -330 -20 -50 -23 -76 -23 -188 -1
-119 2 -138 31 -230 119 -375 470 -781 853 -988 108 -58 284 -115 465 -151
106 -21 111 -21 265 -41 87 -11 236 -19 365 -19 320 0 502 35 765 146 90 38
152 68 612 292 432 210 655 288 953 331 44 6 229 8 260 1 11 -2 38 -6 60 -10
178 -30 389 -155 476 -282 132 -193 44 -445 -225 -640 -33 -24 -63 -44 -67
-44 -3 0 2 28 11 63 11 38 16 81 13 108 -6 54 -52 153 -92 195 -82 89 -228
174 -341 198 -63 14 -220 14 -285 1 -119 -24 -242 -75 -321 -133 -23 -17 -67
-63 -97 -104 -200 -265 -935 -703 -1527 -910 -208 -72 -346 -106 -555 -134
-53 -7 -252 -8 -295 -1 -14 3 -47 8 -75 12 -27 4 -93 18 -145 31 -508 126
-985 448 -1326 894 -54 70 -126 176 -137 200 -4 8 -18 33 -32 55 -79 127 -205
435 -229 562 -41 212 -46 255 -46 401 0 129 6 200 31 323 19 96 75 272 108
339 124 250 282 449 500 631 146 122 383 279 422 279 9 0 51 -9 94 -20z"/>
</g>
</svg>
