<?xml version="1.0" standalone="no"?>
<!DOCTYPE svg PUBLIC "-//W3C//DTD SVG 20010904//EN"
 "http://www.w3.org/TR/2001/REC-SVG-20010904/DTD/svg10.dtd">
<svg version="1.0" xmlns="http://www.w3.org/2000/svg"
 width="64.000000pt" height="64.000000pt" viewBox="0 0 64.000000 64.000000"
 preserveAspectRatio="xMidYMid meet">
<metadata>
Created by potrace 1.11, written by Peter Selinger 2001-2013
</metadata>
<g transform="translate(0.000000,64.000000) scale(0.100000,-0.100000)"
fill="#000000" stroke="none">
<path d="M241 410 c-100 -49 -154 -53 -195 -15 -14 13 -26 29 -26 35 0 5 -5
10 -11 10 -7 0 -9 -24 -6 -71 5 -87 19 -104 85 -104 39 0 63 10 136 53 48 29
90 51 93 48 3 -2 0 -14 -6 -25 -22 -41 -16 -89 14 -121 38 -40 81 -47 137 -22
43 19 44 19 70 -1 33 -25 70 -17 86 18 19 41 -9 85 -53 85 -16 0 -24 10 -33
46 -30 112 -141 136 -291 64z"/>
</g>
</svg>
